<svg xmlns="http://www.w3.org/2000/svg" width="160" height="96" viewBox="0 0 160 96" shape-rendering="crispEdges">
<rect x="0" y="0" width="160" height="96" fill="#000000" />
<rect x="0" y="0" width="16" height="16" fill="#243944" /><rect x="0" y="0" width="16" height="1" fill="#314d59" /><rect x="0" y="15" width="16" height="1" fill="#091318" /><rect x="0" y="0" width="1" height="16" fill="#314d59" /><rect x="15" y="0" width="1" height="16" fill="#0d1a20" /><rect x="3" y="3" width="2" height="2" fill="#7fb7d1" opacity="0.45"/><rect x="10" y="8" width="2" height="2" fill="#7fb7d1" opacity="0.35"/>
<rect x="16" y="0" width="16" height="16" fill="#2a2e34" /><rect x="16" y="0" width="16" height="1" fill="#3d434b" /><rect x="16" y="15" width="16" height="1" fill="#091318" /><rect x="16" y="0" width="1" height="16" fill="#3d434b" /><rect x="31" y="0" width="1" height="16" fill="#0d1a20" /><rect x="19" y="3" width="2" height="2" fill="#9aa4b0" opacity="0.45"/><rect x="26" y="8" width="2" height="2" fill="#9aa4b0" opacity="0.35"/>
<rect x="32" y="0" width="16" height="16" fill="#332a1f" /><rect x="32" y="0" width="16" height="1" fill="#4d402d" /><rect x="32" y="15" width="16" height="1" fill="#091318" /><rect x="32" y="0" width="1" height="16" fill="#4d402d" /><rect x="47" y="0" width="1" height="16" fill="#0d1a20" /><rect x="35" y="3" width="2" height="2" fill="#c3ab78" opacity="0.45"/><rect x="42" y="8" width="2" height="2" fill="#c3ab78" opacity="0.35"/>
<rect x="48" y="0" width="16" height="16" fill="#d7bf7e" /><rect x="49" y="1" width="14" height="14" fill="#6f2c2f" /><rect x="50" y="2" width="12" height="12" fill="#854447" opacity="0.65"/><rect x="52" y="4" width="8" height="8" fill="#6f2c2f" opacity="0.65"/>
<rect x="64" y="0" width="16" height="16" fill="#d2e6fa" /><rect x="65" y="1" width="14" height="14" fill="#264c70" /><rect x="66" y="2" width="12" height="12" fill="#39648b" opacity="0.65"/><rect x="68" y="4" width="8" height="8" fill="#264c70" opacity="0.65"/>
<rect x="80" y="0" width="16" height="16" fill="#4c5d5f" /><rect x="80" y="0" width="16" height="2" fill="#b9cfd3" /><rect x="80" y="14" width="16" height="2" fill="#122029" /><line x1="80" y1="5" x2="96" y2="5" stroke="#708286" stroke-width="1" /><line x1="80" y1="10" x2="96" y2="10" stroke="#708286" stroke-width="1" /><line x1="85" y1="0" x2="85" y2="16" stroke="#708286" stroke-width="1" /><line x1="90" y1="0" x2="90" y2="16" stroke="#708286" stroke-width="1" />
<rect x="96" y="0" width="16" height="16" fill="#5a5041" /><rect x="96" y="0" width="16" height="2" fill="#d7caaf" /><rect x="96" y="14" width="16" height="2" fill="#122029" /><line x1="96" y1="5" x2="112" y2="5" stroke="#81745d" stroke-width="1" /><line x1="96" y1="10" x2="112" y2="10" stroke="#81745d" stroke-width="1" /><line x1="101" y1="0" x2="101" y2="16" stroke="#81745d" stroke-width="1" /><line x1="106" y1="0" x2="106" y2="16" stroke="#81745d" stroke-width="1" />
<rect x="112" y="0" width="16" height="16" fill="#233540" /><rect x="114" y="2" width="12" height="12" fill="#8dc1ff" /><line x1="120" y1="2" x2="120" y2="14" stroke="#d7f0ff" stroke-width="1" /><line x1="114" y1="8" x2="126" y2="8" stroke="#d7f0ff" stroke-width="1" /><rect x="112" y="14" width="16" height="2" fill="#11191e" />
<rect x="128" y="0" width="16" height="16" fill="#3c2d20" /><rect x="131" y="2" width="10" height="12" fill="#79553c" /><rect x="132" y="3" width="8" height="10" fill="#9f714f" /><circle cx="139.5" cy="8" r="1" fill="#f0d58a" />
<rect x="144" y="0" width="16" height="16" fill="#21343e" /><rect x="146" y="8" width="12" height="5" fill="#5d4932" /><rect x="147" y="3" width="10" height="6" fill="#825c3f" /><rect x="148" y="4" width="8" height="4" fill="#a57957" /><rect x="147" y="13" width="2" height="3" fill="#35281c" /><rect x="155" y="13" width="2" height="3" fill="#35281c" />
<rect x="0" y="16" width="16" height="16" fill="#21343e" /><rect x="2" y="27" width="12" height="3" fill="#594734" /><rect x="3" y="22" width="10" height="5" fill="#826552" /><rect x="4" y="18" width="8" height="5" fill="#8ed7ff" /><rect x="5" y="19" width="6" height="3" fill="#d5f6ff" />
<rect x="16" y="16" width="16" height="16" fill="#22353f" /><rect x="22" y="20" width="4" height="8" fill="#5f3f2d" /><circle cx="24" cy="19" r="5" fill="#5bbf7a" /><circle cx="21" cy="21" r="4" fill="#7ad592" /><circle cx="27" cy="21" r="4" fill="#72cc8c" /><rect x="21" y="28" width="6" height="2" fill="#7b5b42" />
<rect x="32" y="16" width="16" height="16" fill="#22353f" /><rect x="34" y="27" width="12" height="3" fill="#7e5e45" /><rect x="35" y="20" width="10" height="7" fill="#a37f5d" /><rect x="36" y="21" width="8" height="5" fill="#caa37d" /><rect x="37" y="22" width="6" height="3" fill="#82593e" />
<rect x="48" y="16" width="16" height="16" fill="#22353f" /><rect x="50" y="18" width="12" height="12" fill="#182229" /><rect x="51" y="19" width="10" height="10" fill="#2a3b46" /><rect x="52" y="20" width="8" height="6" fill="#8ed7ff" /><rect x="54" y="27" width="4" height="2" fill="#8c734f" />
<rect x="64" y="16" width="16" height="16" fill="#243944" /><rect x="65" y="17" width="14" height="14" fill="#3b5561" /><line x1="65" y1="17" x2="79" y2="31" stroke="#90aab4" stroke-width="1" /><line x1="79" y1="17" x2="65" y2="31" stroke="#90aab4" stroke-width="1" />
<rect x="80" y="16" width="16" height="16" fill="#243944" /><rect x="80" y="28" width="16" height="4" fill="#16232a" /><rect x="81" y="17" width="14" height="11" fill="#2f4a56" /><rect x="83" y="19" width="10" height="7" fill="#ffdf96" opacity="0.2"/>
<rect x="96" y="16" width="16" height="16" fill="#243944" /><rect x="98" y="18" width="12" height="12" fill="#35505d" /><rect x="99" y="19" width="10" height="4" fill="#f2d58b" /><rect x="99" y="24" width="10" height="5" fill="#6a3437" />
<rect x="112" y="16" width="16" height="16" fill="#243944" /><rect x="114" y="18" width="12" height="12" fill="#24453e" /><rect x="115" y="19" width="10" height="10" fill="#317d64" /><rect x="117" y="21" width="6" height="6" fill="#61d1b1" />
<rect x="128" y="16" width="16" height="16" fill="#243944" /><rect x="130" y="18" width="12" height="12" fill="#694c35" /><rect x="131" y="19" width="10" height="10" fill="#8d6848" /><rect x="133" y="21" width="6" height="6" fill="#f2d1b0" />
<rect x="144" y="16" width="16" height="16" fill="#243944" /><rect x="146" y="25" width="12" height="3" fill="#7c6248" /><rect x="148" y="20" width="8" height="6" fill="#ffbf69" /><polygon points="148,26 156,26 152,29" fill="#ffdca4" />
<rect x="0" y="32" width="16" height="16" fill="#1c2730" /><rect x="1" y="33" width="14" height="14" fill="#2f414d" /><line x1="8" y1="33" x2="8" y2="47" stroke="#4a6472" stroke-width="1" /><line x1="1" y1="40" x2="15" y2="40" stroke="#4a6472" stroke-width="1" /><rect x="0" y="32" width="16" height="1" fill="#718f9e" /><rect x="0" y="47" width="16" height="1" fill="#0e171d" />
<rect x="16" y="32" width="16" height="16" fill="#152229" /><rect x="18" y="34" width="12" height="12" fill="#2a3d46" /><rect x="20" y="36" width="8" height="8" fill="#0d1519" /><rect x="21" y="37" width="6" height="2" fill="#8ed7ff" /><rect x="21" y="40" width="6" height="2" fill="#61d1b1" />
<rect x="32" y="32" width="16" height="16" fill="#243944" /><rect x="33" y="33" width="14" height="14" fill="#5a5041" /><rect x="34" y="34" width="12" height="12" fill="#81745d" /><line x1="34" y1="38" x2="46" y2="38" stroke="#d7caaf" stroke-width="1" /><line x1="34" y1="42" x2="46" y2="42" stroke="#d7caaf" stroke-width="1" />
</svg>