<svg xmlns="http://www.w3.org/2000/svg" width="160" height="96" viewBox="0 0 160 96" shape-rendering="crispEdges"><g transform="translate(0,0)"><rect x="0" y="0" width="16" height="16" fill="#2a3135" /><rect x="1" y="1" width="14" height="14" fill="#313a3f" /><rect x="3" y="3" width="2" height="2" fill="#4a5459" opacity="0.35" /><rect x="10" y="8" width="2" height="2" fill="#4a5459" opacity="0.3" /><rect x="6" y="12" width="1" height="1" fill="#59646a" /></g><g transform="translate(16,0)"><rect x="0" y="0" width="16" height="16" fill="#d7d2c8" /><rect x="0" y="0" width="16" height="1" fill="#ece7dc" /><rect x="0" y="15" width="16" height="1" fill="#a6a096" /><line x1="0" y1="8" x2="16" y2="8" stroke="#bcb5a9" stroke-width="1" opacity="0.5" /><line x1="8" y1="0" x2="8" y2="16" stroke="#bcb5a9" stroke-width="1" opacity="0.4" /></g><g transform="translate(32,0)"><rect x="0" y="0" width="16" height="16" fill="#f4ead9" /><rect x="0" y="0" width="8" height="8" fill="#d24c45" /><rect x="8" y="8" width="8" height="8" fill="#d24c45" /><rect x="0" y="0" width="16" height="1" fill="#fff4e7" opacity="0.4" /></g><g transform="translate(48,0)"><rect x="0" y="0" width="16" height="16" fill="#e3ebef" /><line x1="0" y1="8" x2="16" y2="8" stroke="#aab5bc" stroke-width="1" /><line x1="8" y1="0" x2="8" y2="16" stroke="#aab5bc" stroke-width="1" /><rect x="1" y="1" width="6" height="6" fill="#c8dbe4" opacity="0.35" /></g><g transform="translate(64,0)"><rect x="0" y="0" width="16" height="16" fill="#9b6f45" /><line x1="0" y1="4" x2="16" y2="4" stroke="#7a5433" stroke-width="1" /><line x1="0" y1="9" x2="16" y2="9" stroke="#b78456" stroke-width="1" /><line x1="0" y1="14" x2="16" y2="14" stroke="#7a5433" stroke-width="1" /></g><g transform="translate(80,0)"><rect x="0" y="0" width="16" height="16" fill="#30373b" /><rect x="7" y="0" width="2" height="16" fill="#f0c95d" /><rect x="7" y="0" width="2" height="4" fill="#30373b" /><rect x="7" y="6" width="2" height="4" fill="#30373b" /><rect x="7" y="12" width="2" height="4" fill="#30373b" /></g><g transform="translate(96,0)"><rect x="0" y="0" width="16" height="16" fill="#31393d" /><line x1="2" y1="14" x2="14" y2="2" stroke="#fbfaf2" stroke-width="2" /><line x1="2" y1="8" x2="8" y2="2" stroke="#fbfaf2" stroke-width="2" opacity="0.7" /></g><g transform="translate(112,0)"><rect x="0" y="0" width="16" height="16" fill="#65764f" /><rect x="2" y="2" width="12" height="12" fill="#4e5f3b" /><circle cx="6" cy="7" r="3" fill="#7fc470" /><circle cx="10" cy="8" r="3" fill="#66ac58" /><rect x="7" y="10" width="2" height="4" fill="#7b5a33" /></g><g transform="translate(128,0)"><rect x="0" y="0" width="16" height="16" fill="#d7d2c8" /><rect x="0" y="12" width="16" height="4" fill="#bf3f36" /><rect x="0" y="11" width="16" height="1" fill="#f7efe4" /></g><g transform="translate(144,0)"><rect x="0" y="0" width="16" height="16" fill="#30373b" /><rect x="1" y="3" width="4" height="10" fill="#f5f1ea" /><rect x="11" y="3" width="4" height="10" fill="#f5f1ea" /></g><g transform="translate(0,16)"><rect x="0" y="0" width="16" height="16" fill="#e8dec8" /><rect x="0" y="0" width="16" height="4" fill="#c53f37" /><rect x="0" y="4" width="16" height="2" fill="#f4cf61" /><rect x="0" y="15" width="16" height="1" fill="#7e6952" /></g><g transform="translate(16,16)"><rect x="0" y="0" width="16" height="16" fill="#e8dec8" /><rect x="0" y="0" width="4" height="16" fill="#c53f37" /><rect x="4" y="0" width="2" height="16" fill="#f4cf61" /><rect x="15" y="0" width="1" height="16" fill="#7e6952" /></g><g transform="translate(32,16)"><rect x="0" y="0" width="16" height="16" fill="#e8dec8" /><rect x="0" y="0" width="16" height="4" fill="#c53f37" /><rect x="2" y="5" width="12" height="9" fill="#9ed7ea" /><line x1="8" y1="5" x2="8" y2="14" stroke="#f3fbff" stroke-width="1" /><line x1="2" y1="9" x2="14" y2="9" stroke="#f3fbff" stroke-width="1" /></g><g transform="translate(48,16)"><rect x="0" y="0" width="16" height="16" fill="#e8dec8" /><rect x="0" y="0" width="16" height="4" fill="#c53f37" /><rect x="2" y="4" width="5" height="12" fill="#83c4df" /><rect x="9" y="4" width="5" height="12" fill="#83c4df" /><line x1="8" y1="4" x2="8" y2="16" stroke="#f8f4eb" stroke-width="1" /><circle cx="6" cy="10" r="1" fill="#f8f4eb" /><circle cx="10" cy="10" r="1" fill="#f8f4eb" /></g><g transform="translate(64,16)"><rect x="0" y="0" width="16" height="16" fill="#e8dec8" /><rect x="0" y="0" width="16" height="4" fill="#c53f37" /><rect x="0" y="0" width="4" height="16" fill="#c53f37" /><rect x="4" y="4" width="12" height="12" fill="#f1e4cf" /></g><g transform="translate(80,16)"><rect x="0" y="0" width="16" height="16" fill="#e8dec8" /><rect x="0" y="0" width="16" height="4" fill="#c53f37" /><rect x="12" y="0" width="4" height="16" fill="#c53f37" /><rect x="0" y="4" width="12" height="12" fill="#f1e4cf" /></g><g transform="translate(96,16)"><rect x="0" y="0" width="16" height="16" fill="#e8dec8" /><rect x="0" y="12" width="16" height="4" fill="#c53f37" /><rect x="0" y="0" width="4" height="16" fill="#c53f37" /><rect x="4" y="0" width="12" height="12" fill="#f1e4cf" /></g><g transform="translate(112,16)"><rect x="0" y="0" width="16" height="16" fill="#e8dec8" /><rect x="0" y="12" width="16" height="4" fill="#c53f37" /><rect x="12" y="0" width="4" height="16" fill="#c53f37" /><rect x="0" y="0" width="12" height="12" fill="#f1e4cf" /></g><g transform="translate(128,16)"><rect x="0" y="0" width="16" height="16" fill="#6b4b31" /><rect x="0" y="0" width="16" height="4" fill="#a37a4f" /><rect x="1" y="4" width="14" height="6" fill="#d5cec2" /><rect x="1" y="10" width="14" height="5" fill="#7b5f44" /><rect x="3" y="6" width="3" height="2" fill="#ef5348" /><rect x="10" y="6" width="3" height="2" fill="#ef5348" /></g><g transform="translate(144,16)"><rect x="0" y="0" width="16" height="16" fill="#6a5440" /><rect x="0" y="0" width="16" height="4" fill="#b28a5d" /><rect x="1" y="4" width="14" height="6" fill="#ded6cb" /><rect x="1" y="10" width="14" height="5" fill="#7b6550" /><rect x="4" y="6" width="8" height="2" fill="#75c8ae" /></g><g transform="translate(0,32)"><rect x="0" y="0" width="16" height="16" fill="#879aa1" /><rect x="1" y="2" width="14" height="5" fill="#d7e0e4" /><rect x="1" y="7" width="14" height="6" fill="#7c8f96" /><rect x="3" y="4" width="10" height="1" fill="#f9ffff" opacity="0.6" /></g><g transform="translate(16,32)"><rect x="0" y="0" width="16" height="16" fill="#48555b" /><rect x="2" y="2" width="12" height="10" fill="#2d3539" /><rect x="3" y="3" width="10" height="3" fill="#fc9148" /><rect x="3" y="7" width="10" height="4" fill="#3f4c51" /><rect x="4" y="12" width="8" height="2" fill="#65767d" /></g><g transform="translate(32,32)"><rect x="0" y="0" width="16" height="16" fill="#7b8489" /><rect x="2" y="2" width="4" height="12" fill="#b7c8ce" /><rect x="6" y="4" width="8" height="8" fill="#6bd0d7" /><rect x="7" y="5" width="6" height="2" fill="#f8ffff" /><rect x="7" y="8" width="6" height="2" fill="#ffe37b" /></g><g transform="translate(48,32)"><rect x="0" y="0" width="16" height="16" fill="#35353b" /><rect x="1" y="2" width="14" height="10" fill="#12171a" /><rect x="2" y="3" width="12" height="2" fill="#f6d35f" /><rect x="2" y="6" width="8" height="2" fill="#ef5348" /><rect x="2" y="9" width="10" height="1" fill="#9be0ef" /></g><g transform="translate(64,32)"><rect x="0" y="0" width="16" height="16" fill="#7b6348" /><rect x="2" y="2" width="12" height="8" fill="#d9ccb8" /><rect x="3" y="3" width="10" height="4" fill="#4f6976" /><rect x="6" y="8" width="4" height="4" fill="#ef5348" /></g><g transform="translate(80,32)"><rect x="0" y="0" width="16" height="16" fill="#d24c45" /><rect x="2" y="2" width="12" height="12" fill="#ac2f2a" /><rect x="4" y="6" width="8" height="4" fill="#efe6d5" /><rect x="6" y="4" width="4" height="8" fill="#f7f1e3" opacity="0.6" /></g><g transform="translate(96,32)"><rect x="0" y="0" width="16" height="16" fill="#8d2e2a" /><rect x="1" y="2" width="14" height="5" fill="#d24c45" /><rect x="1" y="7" width="14" height="3" fill="#f3d9b7" /><rect x="1" y="10" width="14" height="4" fill="#7a5741" /></g><g transform="translate(112,32)"><rect x="0" y="0" width="16" height="16" fill="#8d2e2a" /><rect x="2" y="1" width="5" height="14" fill="#d24c45" /><rect x="7" y="1" width="3" height="14" fill="#f3d9b7" /><rect x="10" y="1" width="4" height="14" fill="#7a5741" /></g><g transform="translate(128,32)"><rect x="0" y="0" width="16" height="16" fill="#3a2d22" /><circle cx="8" cy="8" r="5" fill="#caa36c" /><circle cx="8" cy="8" r="2" fill="#f7e7c6" /><rect x="7" y="12" width="2" height="3" fill="#8f6a43" /></g><g transform="translate(144,32)"><rect x="0" y="0" width="16" height="16" fill="#3a2d22" /><rect x="4" y="3" width="8" height="5" fill="#cf4340" /><rect x="5" y="8" width="6" height="2" fill="#f3dec5" /><rect x="5" y="10" width="2" height="4" fill="#8b6644" /><rect x="9" y="10" width="2" height="4" fill="#8b6644" /></g><g transform="translate(0,48)"><rect x="0" y="0" width="16" height="16" fill="#6f5d43" /><rect x="2" y="2" width="12" height="12" fill="#b79463" /><rect x="4" y="4" width="8" height="3" fill="#ef5348" /><rect x="4" y="8" width="8" height="3" fill="#f7efdf" /></g><g transform="translate(16,48)"><rect x="0" y="0" width="16" height="16" fill="#38454b" /><rect x="4" y="3" width="8" height="7" fill="#6f7f87" /><rect x="5" y="4" width="6" height="5" fill="#48545b" /><rect x="6" y="10" width="4" height="3" fill="#8aa0a9" /></g><g transform="translate(32,48)"><rect x="0" y="0" width="16" height="16" fill="#6d533e" /><rect x="2" y="3" width="12" height="8" fill="#a97d55" /><rect x="3" y="4" width="10" height="6" fill="#d9b384" /><rect x="7" y="11" width="2" height="4" fill="#5e4330" /></g><g transform="translate(48,48)"><rect x="0" y="0" width="16" height="16" fill="#7b6a57" /><rect x="3" y="2" width="10" height="12" fill="#9d8872" /><line x1="3" y1="6" x2="13" y2="6" stroke="#5f4f42" stroke-width="1" /><line x1="3" y1="10" x2="13" y2="10" stroke="#5f4f42" stroke-width="1" /><rect x="5" y="4" width="6" height="1" fill="#f7e27a" /></g><g transform="translate(64,48)"><rect x="0" y="0" width="16" height="16" fill="#e8dec8" /><rect x="12" y="0" width="4" height="16" fill="#c53f37" /><rect x="0" y="5" width="12" height="9" fill="#9ed7ea" /><rect x="10" y="5" width="2" height="9" fill="#f3fbff" /><rect x="0" y="14" width="12" height="2" fill="#876a4f" /></g><g transform="translate(80,48)"><rect x="0" y="0" width="16" height="16" fill="#5a6468" /><rect x="2" y="2" width="12" height="9" fill="#69767b" /><rect x="3" y="3" width="10" height="3" fill="#ffda76" /><rect x="3" y="7" width="10" height="3" fill="#f08a42" /><rect x="4" y="12" width="8" height="2" fill="#c1d2d7" /></g><g transform="translate(96,48)"><rect x="0" y="0" width="16" height="16" fill="#98a8af" /><rect x="2" y="2" width="12" height="12" fill="#ccd8dd" /><rect x="3" y="3" width="10" height="4" fill="#8ed7ff" /><rect x="3" y="8" width="10" height="5" fill="#b0bfc6" /></g><g transform="translate(112,48)"><rect x="0" y="0" width="16" height="16" fill="#7d4c37" /><rect x="2" y="2" width="12" height="12" fill="#a96547" /><rect x="3" y="3" width="10" height="4" fill="#9ddcf3" /><rect x="3" y="8" width="10" height="5" fill="#5f3022" /></g><g transform="translate(128,48)"><rect x="0" y="0" width="16" height="16" fill="#f6d35f" /><rect x="1" y="1" width="14" height="14" fill="#c53f37" /><path d="M3 11 C4 4, 12 4, 13 11 Z" fill="#f6d35f" /><rect x="5" y="8" width="6" height="4" fill="#6cc16f" /><rect x="6" y="6" width="4" height="2" fill="#f7f0e0" /></g><g transform="translate(144,48)"><rect x="0" y="0" width="16" height="16" fill="#000000" opacity="0" /><rect x="6" y="0" width="4" height="16" fill="#d8dadc" /><rect x="5" y="1" width="6" height="2" fill="#b4b8bb" /><rect x="5" y="13" width="6" height="2" fill="#b4b8bb" /></g><g transform="translate(0,64)"><rect x="0" y="0" width="16" height="16" fill="#000000" opacity="0" /><rect x="0" y="6" width="16" height="4" fill="#d8dadc" /><rect x="1" y="5" width="2" height="6" fill="#b4b8bb" /><rect x="13" y="5" width="2" height="6" fill="#b4b8bb" /></g><g transform="translate(16,64)"><rect x="0" y="0" width="16" height="16" fill="#d7d2c8" /><circle cx="8" cy="7" r="4" fill="#f2ece0" /><rect x="7" y="10" width="2" height="4" fill="#7b5a33" /></g><g transform="translate(32,64)"><rect x="0" y="0" width="16" height="16" fill="#d7d2c8" /><path d="M2 7 L8 1 L14 7 Z" fill="#ef5348" /><rect x="7" y="7" width="2" height="7" fill="#8b6644" /></g><g transform="translate(48,64)"><rect x="0" y="0" width="16" height="16" fill="#d7d2c8" /><circle cx="8" cy="6" r="4" fill="#6dbd62" /><circle cx="6" cy="8" r="3" fill="#83cf74" /><rect x="7" y="10" width="2" height="4" fill="#7a5b37" /></g><g transform="translate(64,64)"><rect x="0" y="0" width="16" height="16" fill="#5d4a36" /><rect x="2" y="2" width="12" height="12" fill="#b48a58" /><rect x="4" y="5" width="8" height="3" fill="#f7ecd9" /><rect x="4" y="9" width="8" height="2" fill="#d24c45" /></g><g transform="translate(80,64)"><rect x="0" y="0" width="16" height="16" fill="#f3e4cb" /><rect x="0" y="0" width="16" height="3" fill="#d24c45" /><rect x="0" y="13" width="16" height="3" fill="#d24c45" /></g><g transform="translate(96,64)"><rect x="0" y="0" width="16" height="16" fill="#30373b" /><path d="M8 3 L12 8 L9 8 L9 13 L7 13 L7 8 L4 8 Z" fill="#f0c95d" /></g><g transform="translate(112,64)"><rect x="0" y="0" width="16" height="16" fill="#d7d2c8" /><rect x="4" y="4" width="8" height="4" fill="#d24c45" /><rect x="5" y="8" width="2" height="4" fill="#8b6644" /><rect x="9" y="8" width="2" height="4" fill="#8b6644" /></g><g transform="translate(128,64)"><rect x="0" y="0" width="16" height="16" fill="#2a3135" /><rect x="1" y="1" width="14" height="14" fill="#394247" /></g><g transform="translate(144,64)"><rect x="0" y="0" width="16" height="16" fill="#243944" /><rect x="1" y="1" width="14" height="14" fill="#304752" /></g><g transform="translate(0,80)"><rect x="0" y="0" width="16" height="16" fill="#2a3135" /><rect x="1" y="1" width="14" height="14" fill="#394247" /></g><g transform="translate(16,80)"><rect x="0" y="0" width="16" height="16" fill="#243944" /><rect x="1" y="1" width="14" height="14" fill="#304752" /></g><g transform="translate(32,80)"><rect x="0" y="0" width="16" height="16" fill="#2a3135" /><rect x="1" y="1" width="14" height="14" fill="#394247" /></g><g transform="translate(48,80)"><rect x="0" y="0" width="16" height="16" fill="#243944" /><rect x="1" y="1" width="14" height="14" fill="#304752" /></g><g transform="translate(64,80)"><rect x="0" y="0" width="16" height="16" fill="#2a3135" /><rect x="1" y="1" width="14" height="14" fill="#394247" /></g><g transform="translate(80,80)"><rect x="0" y="0" width="16" height="16" fill="#243944" /><rect x="1" y="1" width="14" height="14" fill="#304752" /></g><g transform="translate(96,80)"><rect x="0" y="0" width="16" height="16" fill="#2a3135" /><rect x="1" y="1" width="14" height="14" fill="#394247" /></g><g transform="translate(112,80)"><rect x="0" y="0" width="16" height="16" fill="#243944" /><rect x="1" y="1" width="14" height="14" fill="#304752" /></g><g transform="translate(128,80)"><rect x="0" y="0" width="16" height="16" fill="#2a3135" /><rect x="1" y="1" width="14" height="14" fill="#394247" /></g><g transform="translate(144,80)"><rect x="0" y="0" width="16" height="16" fill="#243944" /><rect x="1" y="1" width="14" height="14" fill="#304752" /></g></svg>
